<svg width="13" height="13" viewBox="0 0 13 13" fill="none" xmlns="http://www.w3.org/2000/svg">
<path d="M8.66659 6.98766V9.26266C8.66659 11.1585 7.90825 11.9168 6.01242 11.9168H3.73742C1.84159 11.9168 1.08325 11.1585 1.08325 9.26266V6.98766C1.08325 5.09183 1.84159 4.3335 3.73742 4.3335H6.01242C7.90825 4.3335 8.66659 5.09183 8.66659 6.98766Z" stroke="#BEBEBE" stroke-linecap="round" stroke-linejoin="round"/>
<path d="M11.9166 3.73766V6.01266C11.9166 7.9085 11.1583 8.66683 9.26242 8.66683H8.66659V6.98766C8.66659 5.09183 7.90825 4.3335 6.01242 4.3335H4.33325V3.73766C4.33325 1.84183 5.09159 1.0835 6.98742 1.0835H9.26242C11.1583 1.0835 11.9166 1.84183 11.9166 3.73766Z" stroke="#BEBEBE" stroke-linecap="round" stroke-linejoin="round"/>
</svg>
