<svg width="36" height="36" viewBox="0 0 36 36" fill="none" xmlns="http://www.w3.org/2000/svg">
<g filter="url(#filter0_d_260_1202)">
<circle cx="18" cy="18" r="14" fill="white"/>
</g>
<path d="M22.7679 16.479L23.5308 15.7172C24.3231 14.9248 24.3231 13.6356 23.5308 12.8433C23.1475 12.46 22.6372 12.25 22.094 12.25C21.5508 12.25 21.0405 12.4612 20.6572 12.8433L19.8955 13.6063L22.7679 16.479ZM19.2326 14.2693L13.5856 19.9156C13.4659 20.0364 13.3744 20.1854 13.3207 20.3453L12.2733 23.5085C12.2184 23.677 12.2623 23.8625 12.3868 23.9883C12.4772 24.0774 12.5968 24.125 12.7189 24.125C12.7677 24.125 12.8177 24.1177 12.8666 24.1018L16.0282 23.0543C16.1894 23.0006 16.3383 22.9091 16.4592 22.7882L22.105 17.1419L19.2326 14.2693Z" fill="#BABABA"/>
<defs>
<filter id="filter0_d_260_1202" x="0" y="0" width="36" height="36" filterUnits="userSpaceOnUse" color-interpolation-filters="sRGB">
<feFlood flood-opacity="0" result="BackgroundImageFix"/>
<feColorMatrix in="SourceAlpha" type="matrix" values="0 0 0 0 0 0 0 0 0 0 0 0 0 0 0 0 0 0 127 0" result="hardAlpha"/>
<feOffset/>
<feGaussianBlur stdDeviation="2"/>
<feComposite in2="hardAlpha" operator="out"/>
<feColorMatrix type="matrix" values="0 0 0 0 0 0 0 0 0 0 0 0 0 0 0 0 0 0 0.25 0"/>
<feBlend mode="normal" in2="BackgroundImageFix" result="effect1_dropShadow_260_1202"/>
<feBlend mode="normal" in="SourceGraphic" in2="effect1_dropShadow_260_1202" result="shape"/>
</filter>
</defs>
</svg>
