<svg width="36" height="36" viewBox="0 0 36 36" fill="none" xmlns="http://www.w3.org/2000/svg">
<g filter="url(#filter0_d_435_547)">
<circle cx="18" cy="18" r="14" fill="white"/>
</g>
<path fill-rule="evenodd" clip-rule="evenodd" d="M13.4736 16.3018C13.5535 16.6376 13.346 16.9746 13.0101 17.0545C11.4508 17.4253 10.2915 18.8281 10.2915 20.5002C10.2915 22.4562 11.8772 24.0418 13.8332 24.0418C14.1697 24.0418 14.4943 23.9951 14.8013 23.9081C15.1333 23.8139 15.4789 24.0068 15.573 24.3389C15.6672 24.671 15.4743 25.0166 15.1422 25.1107C14.7254 25.2289 14.2861 25.2918 13.8332 25.2918C11.1868 25.2918 9.0415 23.1465 9.0415 20.5002C9.0415 18.2361 10.6112 16.3401 12.7209 15.8384C13.0568 15.7585 13.3937 15.966 13.4736 16.3018Z" fill="#BEBEBE"/>
<path fill-rule="evenodd" clip-rule="evenodd" d="M22.4148 16.3018C22.4946 15.966 22.8316 15.7585 23.1674 15.8384C25.2772 16.3401 26.8469 18.2361 26.8469 20.5002C26.8469 23.1465 24.7016 25.2918 22.0552 25.2918C21.6023 25.2918 21.163 25.2289 20.7462 25.1107C20.4141 25.0166 20.2212 24.671 20.3154 24.3389C20.4095 24.0068 20.755 23.8139 21.0871 23.9081C21.3941 23.9951 21.7186 24.0418 22.0552 24.0418C24.0112 24.0418 25.5969 22.4562 25.5969 20.5002C25.5969 18.8281 24.4376 17.4253 22.8782 17.0545C22.5424 16.9746 22.3349 16.6376 22.4148 16.3018Z" fill="#BEBEBE"/>
<path fill-rule="evenodd" clip-rule="evenodd" d="M12.375 16.3335C12.375 13.2269 14.8934 10.7085 18 10.7085C21.1066 10.7085 23.625 13.2269 23.625 16.3335C23.625 16.6787 23.3452 16.9585 23 16.9585C22.6548 16.9585 22.375 16.6787 22.375 16.3335C22.375 13.9173 20.4162 11.9585 18 11.9585C15.5838 11.9585 13.625 13.9173 13.625 16.3335C13.625 16.6787 13.3452 16.9585 13 16.9585C12.6548 16.9585 12.375 16.6787 12.375 16.3335Z" fill="#BEBEBE"/>
<path fill-rule="evenodd" clip-rule="evenodd" d="M17.5571 16.2773C17.8003 16.0332 18.1953 16.0321 18.4399 16.2748L21.4116 19.2233C21.6566 19.4665 21.6581 19.8622 21.415 20.1072C21.1719 20.3522 20.7762 20.3538 20.5311 20.1107L18.0022 17.6014L15.553 20.0586C15.3093 20.3031 14.9136 20.3038 14.6691 20.0601C14.4247 19.8164 14.424 19.4207 14.6677 19.1762L17.5571 16.2773Z" fill="#BEBEBE"/>
<path fill-rule="evenodd" clip-rule="evenodd" d="M18 17.5676C18.3452 17.5676 18.625 17.8474 18.625 18.1926V23.8335C18.625 24.1787 18.3452 24.4585 18 24.4585C17.6548 24.4585 17.375 24.1787 17.375 23.8335V18.1926C17.375 17.8474 17.6548 17.5676 18 17.5676Z" fill="#BEBEBE"/>
<defs>
<filter id="filter0_d_435_547" x="0" y="0" width="36" height="36" filterUnits="userSpaceOnUse" color-interpolation-filters="sRGB">
<feFlood flood-opacity="0" result="BackgroundImageFix"/>
<feColorMatrix in="SourceAlpha" type="matrix" values="0 0 0 0 0 0 0 0 0 0 0 0 0 0 0 0 0 0 127 0" result="hardAlpha"/>
<feOffset/>
<feGaussianBlur stdDeviation="2"/>
<feComposite in2="hardAlpha" operator="out"/>
<feColorMatrix type="matrix" values="0 0 0 0 0 0 0 0 0 0 0 0 0 0 0 0 0 0 0.25 0"/>
<feBlend mode="normal" in2="BackgroundImageFix" result="effect1_dropShadow_435_547"/>
<feBlend mode="normal" in="SourceGraphic" in2="effect1_dropShadow_435_547" result="shape"/>
</filter>
</defs>
</svg>
