<svg width="80" height="29" viewBox="0 0 80 29" fill="none" xmlns="http://www.w3.org/2000/svg">
<g clip-path="url(#clip0_2_46)">
<path fill-rule="evenodd" clip-rule="evenodd" d="M5.44505 0L4.08213 3.79291H22.9601L24.323 0H5.44505ZM3.40149 5.68936L2.03857 9.48227H20.9165L22.2794 5.68936H3.40149ZM1.36126 11.3787L0 15.1716H18.878L20.2392 11.3787H1.36293H1.36126Z" fill="#009FDF"/>
<path fill-rule="evenodd" clip-rule="evenodd" d="M40.1339 16.6164V16.6959C40.9975 17.0173 41.8213 17.5807 42.2523 17.9427C43.5869 19.0694 44.1744 20.5565 44.1744 22.4851C44.1744 25.6622 42.5269 27.9528 39.8193 28.6769C38.9956 28.9171 38.1319 28.9983 36.5227 28.9983H28.3235V5.76211H35.5824C37.0735 5.76211 38.0936 5.84162 38.9956 6.08354C41.6249 6.80761 43.3506 8.65669 43.3506 11.5919C43.3506 13.1601 42.8015 14.4882 41.8995 15.3713C41.5068 15.7739 40.9576 16.256 40.1339 16.6181V16.6164ZM32.8749 19.0694V25.18H36.0135C36.9554 25.18 37.8174 25.1005 38.4464 24.4966C39.0738 23.8926 39.3484 23.1296 39.3484 22.1247C39.3484 21.3617 39.152 20.6377 38.7593 20.1149C38.092 19.2707 37.2682 19.0694 35.8554 19.0694H32.8732H32.8749ZM32.835 15.0481H35.3861C36.1716 15.0481 36.5626 15.0481 36.9554 14.928C38.0154 14.6066 38.6827 13.6423 38.6827 12.3143C38.6827 10.7477 37.9755 10.0625 36.9554 9.74111C36.5227 9.62099 36.0933 9.58039 35.2296 9.58039H32.8366V15.0481H32.835ZM51.0023 29V9.66159H44.4506V5.76211H62.6579L61.3632 9.66159H55.5554V29H51.004H51.0023ZM64.0691 29V5.76211H78.8234L77.5287 9.66159H68.5823V14.8079H72.2317C75.1739 14.8079 76.7049 15.532 77.765 16.4557C78.5887 17.1797 80.0016 18.7869 80.0016 21.964C80.0016 25.1411 78.5504 26.8278 77.334 27.7126C75.9228 28.7175 74.43 29 71.4096 29H64.0708H64.0691ZM68.5823 25.1005H71.9971C73.2918 25.1005 74.0756 24.7791 74.6264 24.055C74.901 23.693 75.2937 23.0501 75.2937 21.8439C75.2937 20.6377 74.901 19.7935 74.1172 19.1895C73.6462 18.8275 73.0188 18.6279 71.9588 18.6279H68.5839V25.1005H68.5823Z" fill="#0A2973"/>
</g>
<defs>
<clipPath id="clip0_2_46">
<rect width="80" height="29" fill="white"/>
</clipPath>
</defs>
</svg>
