<svg width="595" height="265" viewBox="0 0 595 265" fill="none" xmlns="http://www.w3.org/2000/svg">
<g opacity="0.6" filter="url(#filter0_d_111_267)">
<path d="M494.707 196.293C494.317 195.902 493.683 195.902 493.293 196.293C492.902 196.683 492.902 197.317 493.293 197.707L494.707 196.293ZM552 255L551.293 255.707L551.586 256H552V255ZM609.5 256C610.052 256 610.5 255.552 610.5 255C610.5 254.448 610.052 254 609.5 254V256ZM493.293 67.2929C492.902 67.6834 492.902 68.3166 493.293 68.7071C493.683 69.0976 494.317 69.0976 494.707 68.7071L493.293 67.2929ZM552 10V9H551.586L551.293 9.29289L552 10ZM609.5 11C610.052 11 610.5 10.5523 610.5 10C610.5 9.44772 610.052 9 609.5 9V11ZM69.7929 97.2071C70.1834 97.5976 70.8166 97.5976 71.2071 97.2071C71.5976 96.8166 71.5976 96.1834 71.2071 95.7929L69.7929 97.2071ZM33 59L33.7071 58.2929L33.4142 58H33V59ZM-24.5 58C-25.0523 58 -25.5 58.4477 -25.5 59C-25.5 59.5523 -25.0523 60 -24.5 60V58ZM71.7071 151.707C72.0976 151.317 72.0976 150.683 71.7071 150.293C71.3166 149.902 70.6834 149.902 70.2929 150.293L71.7071 151.707ZM33.5 188.5V189.5H33.9142L34.2071 189.207L33.5 188.5ZM-24 187.5C-24.5523 187.5 -25 187.948 -25 188.5C-25 189.052 -24.5523 189.5 -24 189.5V187.5ZM76.7929 132.207C77.1834 132.598 77.8166 132.598 78.2071 132.207C78.5976 131.817 78.5976 131.183 78.2071 130.793L76.7929 132.207ZM37.1667 96.5C37.1667 99.4455 39.5545 101.833 42.5 101.833C45.4455 101.833 47.8333 99.4455 47.8333 96.5C47.8333 93.5545 45.4455 91.1667 42.5 91.1667C39.5545 91.1667 37.1667 93.5545 37.1667 96.5ZM508.707 171.293C508.317 170.902 507.683 170.902 507.293 171.293C506.902 171.683 506.902 172.317 507.293 172.707L508.707 171.293ZM549.667 219C549.667 221.946 552.055 224.333 555 224.333C557.945 224.333 560.333 221.946 560.333 219C560.333 216.054 557.945 213.667 555 213.667C552.055 213.667 549.667 216.054 549.667 219ZM271 128.5C270.448 128.5 270 128.948 270 129.5C270 130.052 270.448 130.5 271 130.5V128.5ZM328.5 130.5C329.052 130.5 329.5 130.052 329.5 129.5C329.5 128.948 329.052 128.5 328.5 128.5V130.5ZM493.293 197.707L551.293 255.707L552.707 254.293L494.707 196.293L493.293 197.707ZM552 256H609.5V254H552V256ZM494.707 68.7071L552.707 10.7071L551.293 9.29289L493.293 67.2929L494.707 68.7071ZM552 11H609.5V9H552V11ZM71.2071 95.7929L33.7071 58.2929L32.2929 59.7071L69.7929 97.2071L71.2071 95.7929ZM33 58H-24.5V60H33V58ZM70.2929 150.293L32.7929 187.793L34.2071 189.207L71.7071 151.707L70.2929 150.293ZM33.5 187.5H-24V189.5H33.5V187.5ZM78.2071 130.793L43.2071 95.7929L41.7929 97.2071L76.7929 132.207L78.2071 130.793ZM507.293 172.707L554.293 219.707L555.707 218.293L508.707 171.293L507.293 172.707ZM271 130.5H328.5V128.5H271V130.5Z" fill="#0062FF"/>
</g>
<defs>
<filter id="filter0_d_111_267" x="-34.1" y="0.4" width="653.2" height="264.2" filterUnits="userSpaceOnUse" color-interpolation-filters="sRGB">
<feFlood flood-opacity="0" result="BackgroundImageFix"/>
<feColorMatrix in="SourceAlpha" type="matrix" values="0 0 0 0 0 0 0 0 0 0 0 0 0 0 0 0 0 0 127 0" result="hardAlpha"/>
<feOffset/>
<feGaussianBlur stdDeviation="4.3"/>
<feComposite in2="hardAlpha" operator="out"/>
<feColorMatrix type="matrix" values="0 0 0 0 0 0 0 0 0 0.384314 0 0 0 0 1 0 0 0 1 0"/>
<feBlend mode="normal" in2="BackgroundImageFix" result="effect1_dropShadow_111_267"/>
<feBlend mode="normal" in="SourceGraphic" in2="effect1_dropShadow_111_267" result="shape"/>
</filter>
</defs>
</svg>
